<?xml version="1.0" encoding="utf-8"?><svg viewBox="0 0 164 66" xmlns="http://www.w3.org/2000/svg" xmlns:xlink="http://www.w3.org/1999/xlink"><style>:root>svg{display:none}:root>svg:target{display:block}</style><svg fill="#474739" viewBox="0 0 24 24" id="email" xmlns="http://www.w3.org/2000/svg"><path d="M20 4H4c-1.1 0-1.99.9-1.99 2L2 18c0 1.1.9 2 2 2h16c1.1 0 2-.9 2-2V6c0-1.1-.9-2-2-2zm0 4l-8 5-8-5V6l8 5 8-5v2z"/></svg><svg fill="#474739" viewBox="0 0 64 66" id="favicon" xmlns="http://www.w3.org/2000/svg"><path d="M57.367 10.775L38.633 21.553V0H25.367v21.553L6.633 10.775 0 22.224l18.731 10.774L0 43.773l6.633 11.449 18.734-10.775V66h13.266V44.447l18.734 10.775L64 43.773 45.269 32.998 64 22.224l-6.633-11.45z"/></svg><svg fill="#474739" viewBox="0 0 164 24" id="logo" xmlns="http://www.w3.org/2000/svg"><path d="M19.649 5.286L14 8.548V2.025h-4v6.523L4.351 5.286l-2 3.465 5.648 3.26-5.648 3.262 2 3.465L10 15.477V22h4v-6.523l5.649 3.26 2-3.464-5.648-3.261 5.648-3.261-2-3.465zM42.719 20h-3.317V6.822H34V4h14.12v2.822H42.72V20zM49.551 20V4h6.397c3.625 0 6.515 1.267 6.515 4.778 0 2.444-1.635 3.955-4.24 4.31 1.729.312 3.032 1.779 3.766 3.2L63.932 20h-3.957l-1.35-2.689c-1.137-2.267-2.25-3.133-4.383-3.133h-1.374V20H49.55zm3.317-13.178v4.69h2.274c2.512 0 3.91-.712 3.91-2.356 0-1.978-1.706-2.334-3.957-2.334h-2.227z"/><path d="M70.336 4h3.08l6.61 16h-3.46l-1.255-3.178h-7.06L66.995 20h-3.388l6.729-16zm1.469 3.822L69.293 14.2h5l-2.489-6.378zM84.359 20h-3.317V4h3.317v16zM90.095 20h-3.222V4h3.364l7.842 10.867V4h3.222v16h-3.364L90.095 9.133V20zM107.127 20h-3.317V4h4.312l4.691 12.178L117.551 4h4.241v16h-3.341V9.133L114.211 20h-2.843l-4.241-10.867V20zM136.819 20H124.31V4h12.272v2.822h-8.955v3.6h7.771v2.822h-7.771v3.934h9.192V20zM149.977 4h3.08l6.61 16h-3.459l-1.256-3.178h-7.06L146.637 20h-3.388l6.728-16zm1.469 3.822l-2.511 6.378h4.999l-2.488-6.378zM164 20h-3.317V4H164v16z"/></svg><svg fill="#474739" viewBox="0 0 24 24" id="twitter" xmlns="http://www.w3.org/2000/svg"><path d="M13.941 10.392L21.536 1.5h-1.8l-6.593 7.72L7.875 1.5H1.8l7.965 11.676L1.8 22.5h1.8l6.963-8.154 5.564 8.154h6.075l-8.26-12.108zm-2.464 2.886l-.807-1.162-6.422-9.251h2.765l5.18 7.466.808 1.162 6.736 9.705h-2.764l-5.496-7.92z"/></svg></svg>