<svg width="164" height="24" viewBox="0 0 164 24" fill="none" xmlns="http://www.w3.org/2000/svg">
<path d="M19.649 5.2859L14 8.5479V2.0249H10V8.5479L4.35101 5.2859L2.35101 8.7509L7.99901 12.0119L2.35101 15.2729L4.35101 18.7379L10 15.4769V21.9999H14V15.4769L19.649 18.7379L21.649 15.2729L16.001 12.0119L21.649 8.7509L19.649 5.2859Z" fill="white"/>
<path d="M42.7186 20H39.4017V6.82222H34V4H48.1203V6.82222H42.7186V20Z" fill="white"/>
<path d="M49.5511 20V4H55.9479C59.5727 4 62.4631 5.26667 62.4631 8.77778C62.4631 11.2222 60.8284 12.7333 58.2223 13.0889C59.9518 13.4 61.2548 14.8667 61.9893 16.2889L63.932 20H59.9755L58.625 17.3111C57.4878 15.0444 56.3743 14.1778 54.242 14.1778H52.8679V20H49.5511ZM52.8679 6.82222V11.5111H55.1423C57.6537 11.5111 59.0515 10.8 59.0515 9.15556C59.0515 7.17778 57.3457 6.82222 55.0949 6.82222H52.8679Z" fill="white"/>
<path d="M70.3356 4H73.4156L80.0256 20H76.5666L75.3109 16.8222H68.2507L66.9951 20H63.6071L70.3356 4ZM71.8045 7.82222L69.2932 14.2H74.2921L71.8045 7.82222Z" fill="white"/>
<path d="M84.3586 20H81.0417V4H84.3586V20Z" fill="white"/>
<path d="M90.0951 20H86.873V4H90.2373L98.0793 14.8667V4H101.301V20H97.9371L90.0951 9.13333V20Z" fill="white"/>
<path d="M107.127 20H103.81V4H108.122L112.813 16.1778L117.551 4H121.792V20H118.451V9.13333L114.211 20H111.368L107.127 9.13333V20Z" fill="white"/>
<path d="M136.819 20H124.31V4H136.582V6.82222H127.627V10.4222H135.398V13.2444H127.627V17.1778H136.819V20Z" fill="white"/>
<path d="M149.977 4H153.057L159.667 20H156.208L154.952 16.8222H147.892L146.637 20H143.249L149.977 4ZM151.446 7.82222L148.935 14.2H153.934L151.446 7.82222Z" fill="white"/>
<path d="M164 20H160.683V4H164V20Z" fill="white"/>
</svg>
